<svg width="27" height="27" viewBox="0 0 27 27" fill="none" xmlns="http://www.w3.org/2000/svg">
<path d="M21.9053 10.0397C22.9516 9.72602 24.0248 9.51035 25.1111 9.39544C26.1941 9.28063 27 8.3351 27 7.24624L27 2.19463C27 0.895168 25.8775 -0.105208 24.5839 0.00887035C11.5461 1.16062 1.16138 11.5461 0.00889671 24.5839C-0.10518 25.8782 0.891539 27 2.191 27L6.69561 27C8.3395 27 9.28137 26.1941 9.39618 25.1111C9.51086 24.0249 9.72629 22.9516 10.0397 21.9052C10.2237 21.2849 10.2363 20.6263 10.0763 19.9993C9.91623 19.3723 9.58951 18.8003 9.13073 18.344L6.96837 16.1816C9.08101 12.282 12.2821 9.08099 16.1816 6.96835L18.344 9.13072C18.8002 9.58962 19.3722 9.91648 19.9992 10.0766C20.6262 10.2368 21.2848 10.2235 21.9053 10.0397Z" fill="#1D77EE"/>
</svg>
