<svg width="12" height="9" viewBox="0 0 12 9" fill="none" xmlns="http://www.w3.org/2000/svg">
<path d="M4.88477 5.08008C5.29642 5.28473 5.77886 5.28959 6.19434 5.09277L11.083 2.77637V6.3125C11.083 7.25531 11.0829 7.72664 10.79 8.01953C10.4971 8.31226 10.0256 8.3125 9.08301 8.3125H2C1.05719 8.3125 0.585862 8.31242 0.292969 8.01953C7.55364e-05 7.72664 0 7.25531 0 6.3125V2.65039L4.88477 5.08008ZM9.08301 0C10.0256 0 10.4971 0.000238656 10.79 0.292969C11.0467 0.549593 11.0761 0.943194 11.0801 1.6709L5.7666 4.18945C5.62827 4.25498 5.4672 4.25353 5.33008 4.18555L0.00292969 1.53613C0.0106745 0.893704 0.0526563 0.533281 0.292969 0.292969C0.585862 7.55312e-05 1.05719 0 2 0H9.08301Z" fill="white"/>
</svg>
