<svg width="11" height="12" viewBox="0 0 11 12" fill="none" xmlns="http://www.w3.org/2000/svg">
<path fill-rule="evenodd" clip-rule="evenodd" d="M5.50014 0C4.26264 0 2.33434 0.11385 1.15954 1.1869C0.329037 2.01382 0.00013752 3.17378 0.00013752 4.675L7.14128e-05 4.76833C-3.25378e-05 4.86747 -0.000144585 4.97434 0.00068748 5.0875C-0.000144551 5.20045 -3.2547e-05 5.30726 7.14e-05 5.40639L0.00013752 5.49973C0.00013752 7.00095 0.329037 8.1609 1.15954 8.98782C1.60669 9.3962 2.16439 9.66488 2.75014 9.84198V11.1031C2.75014 11.542 3.03861 11.55 3.09141 11.55H3.09389C3.22974 11.5494 3.34716 11.4829 3.46486 11.3784C3.50914 11.3391 4.02036 10.7693 4.57641 10.1461C4.90751 10.1673 5.22211 10.175 5.49986 10.175C6.73736 10.175 8.66539 10.0609 9.84046 8.98782C10.6707 8.16117 10.9999 7.00095 10.9999 5.49973L10.9999 5.40636C11 5.30723 11.0001 5.20037 10.9993 5.08723C11.0001 4.9741 11 4.86743 10.9999 4.76827L10.9999 4.67473C10.9999 3.1735 10.671 2.01355 9.84046 1.18662C8.66566 0.11385 6.73764 0 5.50014 0ZM7.23071 6.24635C7.65256 6.49963 7.79364 6.57745 8.09916 6.83485C8.20256 6.92203 8.24986 7.0213 8.25014 7.12525C8.25041 7.30125 8.16324 7.5317 8.04691 7.6879C7.87174 7.92275 7.63331 8.1686 7.33631 8.23405C7.29259 8.24368 7.24886 8.24862 7.20514 8.25C6.89879 8.2588 6.58859 8.13945 6.32514 8.00965C5.69841 7.70083 5.09176 7.29217 4.55001 6.8475C4.37676 6.70505 4.21561 6.55022 4.05996 6.39017C3.89964 6.23452 3.74481 6.07338 3.60264 5.90013C3.15796 5.35838 2.74931 4.75173 2.44049 4.125C2.30931 3.85908 2.18776 3.54503 2.20041 3.23565C2.20206 3.19495 2.20729 3.15425 2.21609 3.11383C2.28181 2.81683 2.52739 2.5784 2.76224 2.40323C2.91844 2.2869 3.14916 2.19973 3.32489 2.2C3.42884 2.20027 3.52811 2.24758 3.61529 2.35098C3.87296 2.65622 3.95051 2.7973 4.20379 3.21942C4.30911 3.39515 4.40014 3.65887 4.40014 3.7994C4.40014 3.89538 4.32259 4.01032 4.25219 4.08045C4.07179 4.26113 3.85014 4.32438 3.85014 4.64062C3.85014 4.95 4.16501 5.49038 4.57201 5.87813C4.95976 6.28513 5.50014 6.6 5.80951 6.6C6.12576 6.6 6.18489 6.37423 6.36529 6.19383C6.43569 6.12343 6.55064 6.05 6.64661 6.05C6.78714 6.05 7.05499 6.14103 7.23071 6.24635ZM7.97514 5.225C7.97514 5.3768 8.09834 5.5 8.25014 5.5C8.40194 5.5 8.52514 5.3768 8.52514 5.225V4.95C8.52514 3.28213 7.16801 1.925 5.50014 1.925C5.34834 1.925 5.22514 2.0482 5.22514 2.2C5.22514 2.3518 5.34834 2.475 5.50014 2.475C6.86469 2.475 7.97514 3.58545 7.97514 4.95V5.225ZM6.29516 4.7443C6.32734 4.86805 6.43899 4.95 6.56109 4.95C6.58391 4.95 6.60729 4.94697 6.63066 4.94092C6.77751 4.90242 6.86551 4.75255 6.82729 4.60542C6.70161 4.12362 6.32486 3.74715 5.84416 3.62258C5.69649 3.5849 5.54689 3.67318 5.50894 3.82003C5.47099 3.96715 5.55926 4.11702 5.70639 4.15525C5.99431 4.2295 6.21981 4.45528 6.29516 4.7443ZM7.15014 4.95C7.15014 5.1018 7.27334 5.225 7.42514 5.225C7.57694 5.225 7.70014 5.1018 7.70014 4.95C7.70014 3.7807 6.78549 2.81628 5.61756 2.75468C5.46824 2.74643 5.33651 2.86303 5.32854 3.01483C5.32056 3.16635 5.43689 3.29588 5.58869 3.30385C6.46429 3.35005 7.15014 4.0733 7.15014 4.95Z" fill="white"/>
</svg>
