<svg width="11" height="11" viewBox="0 0 11 11" fill="none" xmlns="http://www.w3.org/2000/svg">
<path d="M8.96341 1.53125C7.97561 0.546875 6.65854 0 5.26829 0C2.37805 0 0.0365848 2.33333 0.0365848 5.21354C0.0365848 6.125 0.292683 7.03646 0.731707 7.80208L0 10.5L2.78049 9.77083C3.54878 10.1719 4.39024 10.3906 5.26829 10.3906C8.15854 10.3906 10.5 8.05729 10.5 5.17708C10.4634 3.82813 9.95122 2.51562 8.96341 1.53125ZM7.79268 7.07292C7.68293 7.36458 7.17073 7.65625 6.91463 7.69271C6.69512 7.72917 6.40244 7.72917 6.10976 7.65625C5.92683 7.58333 5.67073 7.51042 5.37805 7.36458C4.06098 6.81771 3.21951 5.50521 3.14634 5.39583C3.07317 5.32292 2.59756 4.70312 2.59756 4.04687C2.59756 3.39062 2.92683 3.09896 3.03658 2.95312C3.14634 2.80729 3.29268 2.80729 3.40244 2.80729C3.47561 2.80729 3.58536 2.80729 3.65854 2.80729C3.73171 2.80729 3.84146 2.77083 3.95122 3.02604C4.06098 3.28125 4.31707 3.9375 4.35366 3.97396C4.39024 4.04688 4.39024 4.11979 4.35366 4.19271C4.31707 4.26562 4.28049 4.33854 4.20732 4.41146C4.13414 4.48437 4.06097 4.59375 4.02439 4.63021C3.95122 4.70312 3.87805 4.77604 3.95122 4.88542C4.02439 5.03125 4.28049 5.43229 4.68293 5.79687C5.19512 6.23437 5.59756 6.38021 5.7439 6.45313C5.89024 6.52604 5.96341 6.48958 6.03658 6.41667C6.10975 6.34375 6.36585 6.05208 6.43902 5.90625C6.5122 5.76042 6.62195 5.79688 6.73171 5.83333C6.84146 5.86979 7.5 6.19792 7.60976 6.27083C7.7561 6.34375 7.82927 6.38021 7.86585 6.41667C7.90244 6.52604 7.90244 6.78125 7.79268 7.07292Z" fill="white"/>
</svg>
